<?xml version="1.0" encoding="UTF-8"?>
<!DOCTYPE svg PUBLIC "-//W3C//DTD SVG 1.1//EN" "http://www.w3.org/Graphics/SVG/1.1/DTD/svg11.dtd">
<!-- Creator: CorelDRAW -->
<svg xmlns="http://www.w3.org/2000/svg" xml:space="preserve" width="420mm" height="297mm" style="shape-rendering:geometricPrecision; text-rendering:geometricPrecision; image-rendering:optimizeQuality; fill-rule:evenodd; clip-rule:evenodd"
viewBox="0 0 420 297"
 xmlns:xlink="http://www.w3.org/1999/xlink"
 version="1.1">
 <defs>
  <style type="text/css">
   <![CDATA[
    .str1 {stroke:#ED3237;stroke-width:0.0762}
    .str2 {stroke:red;stroke-width:0.0762}
    .str0 {stroke:#373435;stroke-width:0.2}
    .fil0 {fill:none}
    .fil1 {fill:none;fill-rule:nonzero}
    .fil2 {fill:black}
    .fil3 {fill:white}
   ]]>
  </style>
 </defs>
 <g id="Layer_x0020_1">
  <metadata id="CorelCorpID_0Corel-Layer"/>
  <rect class="fil0 str0" x="18.1853" y="20.3439" width="390" height="145"/>
  <rect class="fil0 str0" x="364.179" y="80.823" width="6" height="3.8"/>
  <rect class="fil0 str0" x="376.179" y="80.823" width="6" height="3.8"/>
  <rect class="fil0 str0" x="388.179" y="80.823" width="6" height="3.8"/>
  <rect class="fil0 str0" x="364.179" y="98.823" width="6" height="3.8"/>
  <rect class="fil0 str0" x="376.179" y="98.823" width="6" height="3.8"/>
  <rect class="fil0 str0" x="388.179" y="98.823" width="6" height="3.8"/>
  <path class="fil0 str0" d="M200.82 126.723c82.1264,0 148.825,-15.4009 149.973,-34.5l-2.7557 0c-0.206,0.5826 -0.7615,1.0001 -1.4146,1.0001 -0.8284,0 -1.5,-0.6716 -1.5,-1.5 0,-0.8284 0.6716,-1.5 1.5,-1.5 0.653,0 1.2085,0.4174 1.4145,0.9999l2.7558 0c-1.1479,-19.099 -67.8468,-34.4997 -149.973,-34.4997l-4.0003 0 0 9.9997 4.0003 0 0 10 -4.0003 0 0 10 4.0003 0 0 10 -4.0003 0 0 10 4.0003 0 0 10 -4.0003 0 0 10 4.0003 0z"/>
  <rect class="fil0 str0" x="34.1796" y="31.823" width="9.99988" height="3.8"/>
  <rect class="fil0 str0" x="54.1793" y="31.823" width="9.99988" height="3.8"/>
  <rect class="fil0 str0" x="74.1793" y="31.823" width="9.99988" height="3.8"/>
  <rect class="fil0 str0" x="94.1793" y="31.823" width="9.99988" height="3.8"/>
  <rect class="fil0 str0" x="34.1796" y="147.823" width="9.99988" height="3.8"/>
  <rect class="fil0 str0" x="54.1793" y="147.823" width="9.99988" height="3.8"/>
  <rect class="fil0 str0" x="74.1793" y="147.823" width="9.99988" height="3.8"/>
  <rect class="fil0 str0" x="94.1793" y="147.823" width="9.99988" height="3.8"/>
  <rect class="fil0 str0" x="347.379" y="121.369" width="22.8" height="11.8"/>
  <path class="fil0 str0" d="M149.618 126.723l-4 0 0 6.0002 4 0 0 5.9997 -4 0 0 6.0002 4 0 0 5.9997 -4 0 0 6.0002 4 0c8.8253,0 16.7603,-1.9056 22.2496,-4.9386l0 -10.0614c0,-0.4142 0.3358,-0.75 0.75,-0.75 0.4142,0 0.75,0.3358 0.75,0.75l0 9.1642c3.9178,-2.5346 6.2504,-5.713 6.2504,-9.1642 0,-8.2843 -13.4315,-15 -30,-15z"/>
  <g>
  </g>
  <g>
  </g>
  <g>
  </g>
  <g>
  </g>
  <g>
  </g>
  <g>
  </g>
  <g>
  </g>
  <g>
  </g>
  <g>
  </g>
  <g>
  </g>
  <g>
  </g>
  <g>
  </g>
  <polygon class="fil1 str1" points="348.939,62.2847 348.939,57.7601 349.172,57.7601 349.172,62.0708 351.467,62.0708 351.467,62.2847 "/>
  <path id="1" class="fil1 str1" d="M354.928 62.2847c-0.0994,0 -0.1707,-0.0238 -0.2139,-0.0713 -0.0432,-0.0475 -0.067,-0.1145 -0.0713,-0.201l0 -0.2398 -0.026 0c-0.0778,0.1642 -0.2031,0.3036 -0.3759,0.4181 -0.1729,0.1145 -0.4106,0.1718 -0.7131,0.1718 -0.3587,0 -0.6353,-0.0821 -0.8297,-0.2463 -0.1945,-0.1643 -0.2917,-0.3976 -0.2917,-0.7001 0,-0.1383 0.0216,-0.2658 0.0648,-0.3825 0.0432,-0.1167 0.1167,-0.2171 0.2204,-0.3014 0.1037,-0.0843 0.2398,-0.1491 0.4084,-0.1945 0.1685,-0.0454 0.376,-0.068 0.6223,-0.068l0.914 0 0 -0.4797c0,-0.3155 -0.0832,-0.5489 -0.2496,-0.7001 -0.1664,-0.1513 -0.3943,-0.2269 -0.6839,-0.2269 -0.2333,0 -0.4386,0.0486 -0.6158,0.1458 -0.1772,0.0973 -0.3111,0.2496 -0.4019,0.4571l-0.1685 -0.1102c0.0907,-0.2075 0.2344,-0.3749 0.431,-0.5024 0.1967,-0.1275 0.4506,-0.1913 0.7617,-0.1913 0.363,0 0.6461,0.0962 0.8492,0.2885 0.2031,0.1923 0.3047,0.4635 0.3047,0.8135l0 2.1197 0.5315 0 0 0.201 -0.4667 0zm-1.3807 -0.1167c0.1469,0 0.2863,-0.0183 0.4181,-0.0551 0.1318,-0.0367 0.2474,-0.0907 0.3468,-0.162 0.0994,-0.0713 0.1782,-0.1589 0.2366,-0.2626 0.0583,-0.1037 0.0875,-0.2247 0.0875,-0.363l0 -0.6741 -0.9075 0c-0.3847,0 -0.6602,0.0615 -0.8265,0.1847 -0.1664,0.1232 -0.2496,0.2841 -0.2496,0.4829l0 0.1945c0,0.2118 0.0821,0.3738 0.2463,0.4862 0.1642,0.1123 0.3803,0.1685 0.6483,0.1685z"/>
  <path id="12" class="fil1 str1" d="M356.588 62.2847l0 -3.3449 0.2269 0 0 0.4927 0.0194 0c0.0303,-0.0735 0.0724,-0.1448 0.1264,-0.2139 0.054,-0.0692 0.1221,-0.1297 0.2042,-0.1815 0.0821,-0.0519 0.1793,-0.094 0.2917,-0.1264 0.1124,-0.0324 0.242,-0.0487 0.3889,-0.0487 0.3674,0 0.6483,0.107 0.8427,0.3209 0.1945,0.2139 0.2917,0.524 0.2917,0.9302l0 2.1716 -0.2268 0 0 -2.1327c0,-0.3803 -0.0821,-0.6568 -0.2464,-0.8297 -0.1642,-0.1729 -0.4019,-0.2593 -0.713,-0.2593 -0.1253,0 -0.2474,0.0173 -0.3663,0.0519 -0.1188,0.0345 -0.2236,0.0864 -0.3144,0.1555 -0.0907,0.0692 -0.1631,0.1556 -0.2171,0.2593 -0.054,0.1037 -0.081,0.2247 -0.081,0.363l0 2.392 -0.2269 0z"/>
  <path id="123" class="fil1 str1" d="M361.78 62.3625c-0.4451,0 -0.7908,-0.1491 -1.0371,-0.4473 -0.2464,-0.2982 -0.3695,-0.7325 -0.3695,-1.3029 0,-0.5705 0.1231,-1.0048 0.3695,-1.303 0.2463,-0.2982 0.592,-0.4473 1.0371,-0.4473 0.2982,0 0.5445,0.0681 0.739,0.2042 0.1945,0.1362 0.3328,0.3144 0.4149,0.5348l-0.1945 0.0778c-0.0735,-0.1988 -0.1923,-0.3511 -0.3565,-0.457 -0.1642,-0.1059 -0.3652,-0.1588 -0.6029,-0.1588 -0.376,0 -0.6633,0.1221 -0.8621,0.3662 -0.1988,0.2442 -0.2982,0.5759 -0.2982,0.9951l0 0.376c0,0.4191 0.0994,0.7508 0.2982,0.995 0.1988,0.2442 0.4861,0.3662 0.8621,0.3662 0.255,0 0.4667,-0.0583 0.6353,-0.175 0.1685,-0.1167 0.2982,-0.2744 0.3889,-0.4732l0.175 0.1037c-0.0432,0.1037 -0.1015,0.1999 -0.175,0.2885 -0.0734,0.0886 -0.1599,0.1674 -0.2593,0.2366 -0.0994,0.0691 -0.2128,0.1232 -0.3403,0.162 -0.1275,0.0389 -0.269,0.0584 -0.4246,0.0584z"/>
  <path id="1234" class="fil1 str1" d="M365.579 62.3625c-0.4495,0 -0.8006,-0.1491 -1.0534,-0.4473 -0.2528,-0.2982 -0.3792,-0.7325 -0.3792,-1.3029 0,-0.5705 0.1253,-1.0048 0.376,-1.303 0.2506,-0.2982 0.592,-0.4473 1.0242,-0.4473 0.2247,0 0.4235,0.04 0.5963,0.12 0.1729,0.0799 0.3177,0.1934 0.4343,0.3403 0.1167,0.1469 0.2053,0.3241 0.2658,0.5315 0.0605,0.2075 0.0908,0.4365 0.0908,0.6872l0 0.0907 -2.5411 0 0 0.1686c0,0.4191 0.1026,0.7508 0.3079,0.995 0.2053,0.2442 0.4981,0.3662 0.8784,0.3662 0.2679,0 0.4948,-0.0626 0.6806,-0.188 0.1858,-0.1253 0.3284,-0.3133 0.4278,-0.5639l0.1815 0.0972c-0.0994,0.2593 -0.2582,0.4667 -0.4764,0.6223 -0.2182,0.1556 -0.4894,0.2334 -0.8135,0.2334zm-0.0324 -3.306c-0.3674,0 -0.6515,0.1232 -0.8525,0.3695 -0.2009,0.2463 -0.3014,0.5791 -0.3014,0.9983l0 0.0259 2.3012 0 0 -0.0324c0,-0.4192 -0.0994,-0.7509 -0.2982,-0.995 -0.1988,-0.2442 -0.4818,-0.3663 -0.8491,-0.3663z"/>
  <path id="12345" class="fil1 str1" d="M369.468 62.3625c-0.4495,0 -0.8006,-0.1491 -1.0534,-0.4473 -0.2528,-0.2982 -0.3792,-0.7325 -0.3792,-1.3029 0,-0.5705 0.1253,-1.0048 0.376,-1.303 0.2506,-0.2982 0.592,-0.4473 1.0242,-0.4473 0.2247,0 0.4235,0.04 0.5963,0.12 0.1729,0.0799 0.3177,0.1934 0.4343,0.3403 0.1167,0.1469 0.2053,0.3241 0.2658,0.5315 0.0605,0.2075 0.0908,0.4365 0.0908,0.6872l0 0.0907 -2.5411 0 0 0.1686c0,0.4191 0.1026,0.7508 0.3079,0.995 0.2053,0.2442 0.4981,0.3662 0.8784,0.3662 0.2679,0 0.4948,-0.0626 0.6806,-0.188 0.1858,-0.1253 0.3284,-0.3133 0.4278,-0.5639l0.1815 0.0972c-0.0994,0.2593 -0.2582,0.4667 -0.4764,0.6223 -0.2182,0.1556 -0.4894,0.2334 -0.8135,0.2334zm-0.0324 -3.306c-0.3674,0 -0.6515,0.1232 -0.8525,0.3695 -0.2009,0.2463 -0.3014,0.5791 -0.3014,0.9983l0 0.0259 2.3012 0 0 -0.0324c0,-0.4192 -0.0994,-0.7509 -0.2982,-0.995 -0.1988,-0.2442 -0.4818,-0.3663 -0.8491,-0.3663z"/>
  <path id="123456" class="fil1 str1" d="M371.88 62.0837l1.115 0 0 -2.9429 -1.115 0 0 -0.201 1.3418 0 0 0.5705 0.0195 0c0.0389,-0.0778 0.0853,-0.1513 0.1394,-0.2204 0.054,-0.0692 0.122,-0.1297 0.2041,-0.1815 0.0822,-0.0519 0.1783,-0.0929 0.2885,-0.1232 0.1102,-0.0302 0.2409,-0.0454 0.3922,-0.0454l0.713 0 0 0.2139 -0.7519 0c-0.1383,0 -0.2679,0.0173 -0.3889,0.0519 -0.121,0.0346 -0.2269,0.0864 -0.3177,0.1556 -0.0907,0.0691 -0.1631,0.1545 -0.2171,0.256 -0.0541,0.1016 -0.0811,0.2194 -0.0811,0.3533l0 2.1132 1.4261 0 0 0.201 -2.7679 0 0 -0.201z"/>
  <path id="1234567" class="fil1 str1" d="M376.022 57.4878l0.2269 0 0 1.9641 0.0194 0c0.0778,-0.1555 0.2032,-0.2927 0.376,-0.4116 0.1729,-0.1188 0.3954,-0.1783 0.6677,-0.1783 0.4235,0 0.7541,0.147 0.9918,0.4408 0.2377,0.2939 0.3565,0.7304 0.3565,1.3095 0,0.5791 -0.1188,1.0155 -0.3565,1.3094 -0.2377,0.2939 -0.5683,0.4408 -0.9918,0.4408 -0.2723,0 -0.4948,-0.0594 -0.6677,-0.1783 -0.1728,-0.1188 -0.2982,-0.256 -0.376,-0.4116l-0.0194 0 0 0.5121 -0.2269 0 0 -4.7969zm1.2381 4.6737c0.3717,0 0.6569,-0.122 0.8557,-0.3662 0.1988,-0.2442 0.2982,-0.5759 0.2982,-0.995l0 -0.376c0,-0.4192 -0.0994,-0.7509 -0.2982,-0.9951 -0.1988,-0.2441 -0.484,-0.3662 -0.8557,-0.3662 -0.1339,0 -0.2614,0.0194 -0.3824,0.0583 -0.121,0.0389 -0.228,0.0951 -0.3209,0.1686 -0.0929,0.0734 -0.1675,0.162 -0.2236,0.2658 -0.0562,0.1037 -0.0843,0.2182 -0.0843,0.3435l0 1.4261c0,0.1253 0.0281,0.2399 0.0843,0.3436 0.0561,0.1037 0.1307,0.1923 0.2236,0.2658 0.0929,0.0734 0.1999,0.1296 0.3209,0.1685 0.121,0.0389 0.2485,0.0583 0.3824,0.0583z"/>
  <path id="12345678" class="fil1 str1" d="M382.154 62.2847c-0.0994,0 -0.1707,-0.0238 -0.2139,-0.0713 -0.0432,-0.0475 -0.067,-0.1145 -0.0713,-0.201l0 -0.2398 -0.026 0c-0.0778,0.1642 -0.2031,0.3036 -0.3759,0.4181 -0.1729,0.1145 -0.4106,0.1718 -0.7131,0.1718 -0.3587,0 -0.6353,-0.0821 -0.8297,-0.2463 -0.1945,-0.1643 -0.2917,-0.3976 -0.2917,-0.7001 0,-0.1383 0.0216,-0.2658 0.0648,-0.3825 0.0432,-0.1167 0.1167,-0.2171 0.2204,-0.3014 0.1037,-0.0843 0.2398,-0.1491 0.4084,-0.1945 0.1685,-0.0454 0.376,-0.068 0.6223,-0.068l0.914 0 0 -0.4797c0,-0.3155 -0.0832,-0.5489 -0.2496,-0.7001 -0.1664,-0.1513 -0.3943,-0.2269 -0.6839,-0.2269 -0.2333,0 -0.4386,0.0486 -0.6158,0.1458 -0.1772,0.0973 -0.3111,0.2496 -0.4019,0.4571l-0.1685 -0.1102c0.0907,-0.2075 0.2344,-0.3749 0.431,-0.5024 0.1967,-0.1275 0.4506,-0.1913 0.7617,-0.1913 0.363,0 0.6461,0.0962 0.8492,0.2885 0.2031,0.1923 0.3047,0.4635 0.3047,0.8135l0 2.1197 0.5315 0 0 0.201 -0.4667 0zm-1.3807 -0.1167c0.1469,0 0.2863,-0.0183 0.4181,-0.0551 0.1318,-0.0367 0.2474,-0.0907 0.3468,-0.162 0.0994,-0.0713 0.1782,-0.1589 0.2366,-0.2626 0.0583,-0.1037 0.0875,-0.2247 0.0875,-0.363l0 -0.6741 -0.9075 0c-0.3847,0 -0.6602,0.0615 -0.8265,0.1847 -0.1664,0.1232 -0.2496,0.2841 -0.2496,0.4829l0 0.1945c0,0.2118 0.0821,0.3738 0.2463,0.4862 0.1642,0.1123 0.3803,0.1685 0.6483,0.1685z"/>
  <path id="123456789" class="fil1 str1" d="M385.078 62.3625c-0.3241,0 -0.6082,-0.0551 -0.8524,-0.1653 -0.2442,-0.1102 -0.457,-0.2755 -0.6385,-0.4959l0.1621 -0.1361c0.1685,0.2074 0.3597,0.3597 0.5736,0.457 0.214,0.0972 0.4657,0.1458 0.7552,0.1458 0.3285,0 0.5932,-0.0637 0.7941,-0.1912 0.201,-0.1275 0.3014,-0.3252 0.3014,-0.5931 0,-0.1167 -0.0194,-0.214 -0.0583,-0.2917 -0.0389,-0.0778 -0.0951,-0.1416 -0.1685,-0.1913 -0.0735,-0.0497 -0.1621,-0.0886 -0.2658,-0.1167 -0.1037,-0.028 -0.2183,-0.0507 -0.3436,-0.068l-0.5186 -0.0713c-0.1426,-0.0216 -0.2787,-0.0486 -0.4084,-0.0811 -0.1296,-0.0324 -0.243,-0.081 -0.3403,-0.1458 -0.0972,-0.0648 -0.175,-0.148 -0.2333,-0.2496 -0.0584,-0.1015 -0.0875,-0.2301 -0.0875,-0.3857 0,-0.1642 0.0324,-0.3046 0.0972,-0.4213 0.0648,-0.1167 0.1523,-0.2118 0.2625,-0.2852 0.1102,-0.0735 0.2399,-0.1275 0.389,-0.1621 0.1491,-0.0346 0.3079,-0.0519 0.4764,-0.0519 0.1599,0 0.3058,0.0141 0.4376,0.0422 0.1318,0.0281 0.2506,0.067 0.3565,0.1167 0.1059,0.0497 0.2009,0.1058 0.2852,0.1685 0.0843,0.0627 0.1588,0.1286 0.2236,0.1977l-0.1555 0.1556c-0.0519,-0.0605 -0.1124,-0.1199 -0.1815,-0.1783 -0.0692,-0.0583 -0.1502,-0.1102 -0.2431,-0.1556 -0.0929,-0.0453 -0.1988,-0.0821 -0.3176,-0.1102 -0.1189,-0.028 -0.2561,-0.0421 -0.4117,-0.0421 -0.3025,0 -0.5434,0.0573 -0.7228,0.1718 -0.1793,0.1145 -0.269,0.2949 -0.269,0.5413 0,0.1166 0.0195,0.2128 0.0584,0.2884 0.0389,0.0757 0.095,0.1383 0.1685,0.188 0.0735,0.0497 0.1621,0.0886 0.2658,0.1167 0.1037,0.0281 0.2182,0.0508 0.3436,0.0681l0.525 0.0777c0.1426,0.0217 0.2777,0.0487 0.4052,0.0811 0.1274,0.0324 0.2398,0.0799 0.337,0.1426 0.0973,0.0627 0.1751,0.1458 0.2334,0.2496 0.0583,0.1037 0.0875,0.2333 0.0875,0.3889 0,0.1685 -0.0335,0.3155 -0.1005,0.4408 -0.0669,0.1253 -0.1588,0.228 -0.2755,0.3079 -0.1166,0.0799 -0.256,0.1405 -0.4181,0.1815 -0.162,0.0411 -0.3381,0.0616 -0.5283,0.0616z"/>
  <path id="12345678910" class="fil1 str1" d="M389.077 57.8962c-0.0864,0 -0.148,-0.0184 -0.1847,-0.0551 -0.0368,-0.0367 -0.0551,-0.0832 -0.0551,-0.1394l0 -0.0583c0,-0.0562 0.0183,-0.1027 0.0551,-0.1394 0.0367,-0.0367 0.0983,-0.0551 0.1847,-0.0551 0.0865,0 0.148,0.0184 0.1848,0.0551 0.0367,0.0367 0.0551,0.0832 0.0551,0.1394l0 0.0583c0,0.0562 -0.0184,0.1027 -0.0551,0.1394 -0.0368,0.0367 -0.0983,0.0551 -0.1848,0.0551zm-1.4131 4.1875l1.3029 0 0 -2.9429 -1.3029 0 0 -0.201 1.5298 0 0 3.1439 1.2187 0 0 0.201 -2.7485 0 0 -0.201z"/>
  <path id="1234567891011" class="fil1 str1" d="M392.856 62.3625c-0.3241,0 -0.6082,-0.0551 -0.8524,-0.1653 -0.2442,-0.1102 -0.457,-0.2755 -0.6385,-0.4959l0.1621 -0.1361c0.1685,0.2074 0.3597,0.3597 0.5736,0.457 0.214,0.0972 0.4657,0.1458 0.7552,0.1458 0.3285,0 0.5932,-0.0637 0.7941,-0.1912 0.201,-0.1275 0.3014,-0.3252 0.3014,-0.5931 0,-0.1167 -0.0194,-0.214 -0.0583,-0.2917 -0.0389,-0.0778 -0.0951,-0.1416 -0.1685,-0.1913 -0.0735,-0.0497 -0.1621,-0.0886 -0.2658,-0.1167 -0.1037,-0.028 -0.2183,-0.0507 -0.3436,-0.068l-0.5186 -0.0713c-0.1426,-0.0216 -0.2787,-0.0486 -0.4084,-0.0811 -0.1296,-0.0324 -0.243,-0.081 -0.3403,-0.1458 -0.0972,-0.0648 -0.175,-0.148 -0.2333,-0.2496 -0.0584,-0.1015 -0.0875,-0.2301 -0.0875,-0.3857 0,-0.1642 0.0324,-0.3046 0.0972,-0.4213 0.0648,-0.1167 0.1523,-0.2118 0.2625,-0.2852 0.1102,-0.0735 0.2399,-0.1275 0.389,-0.1621 0.1491,-0.0346 0.3079,-0.0519 0.4764,-0.0519 0.1599,0 0.3058,0.0141 0.4376,0.0422 0.1318,0.0281 0.2506,0.067 0.3565,0.1167 0.1059,0.0497 0.2009,0.1058 0.2852,0.1685 0.0843,0.0627 0.1588,0.1286 0.2236,0.1977l-0.1555 0.1556c-0.0519,-0.0605 -0.1124,-0.1199 -0.1815,-0.1783 -0.0692,-0.0583 -0.1502,-0.1102 -0.2431,-0.1556 -0.0929,-0.0453 -0.1988,-0.0821 -0.3176,-0.1102 -0.1189,-0.028 -0.2561,-0.0421 -0.4117,-0.0421 -0.3025,0 -0.5434,0.0573 -0.7228,0.1718 -0.1793,0.1145 -0.269,0.2949 -0.269,0.5413 0,0.1166 0.0195,0.2128 0.0584,0.2884 0.0389,0.0757 0.095,0.1383 0.1685,0.188 0.0735,0.0497 0.1621,0.0886 0.2658,0.1167 0.1037,0.0281 0.2182,0.0508 0.3436,0.0681l0.525 0.0777c0.1426,0.0217 0.2777,0.0487 0.4052,0.0811 0.1274,0.0324 0.2398,0.0799 0.337,0.1426 0.0973,0.0627 0.1751,0.1458 0.2334,0.2496 0.0583,0.1037 0.0875,0.2333 0.0875,0.3889 0,0.1685 -0.0335,0.3155 -0.1005,0.4408 -0.0669,0.1253 -0.1588,0.228 -0.2755,0.3079 -0.1166,0.0799 -0.256,0.1405 -0.4181,0.1815 -0.162,0.0411 -0.3381,0.0616 -0.5283,0.0616z"/>
  <g>
   <g>
    <path class="fil2 str2" d="M388.509 49.4824c1.5525,0.0113 2.8094,1.2738 2.8094,2.8264 0,1.5525 -1.2625,2.8207 -2.8094,2.8264l0 -5.6528m-0.0171 -0.0114l0 5.6869c1.5696,0 2.8435,-1.2738 2.8435,-2.8434 0,-1.5753 -1.2739,-2.8435 -2.8435,-2.8435l0 0z"/>
   </g>
   <g>
    <path class="fil2 str2" d="M351.544 49.4824c1.5526,0.0113 2.8094,1.2738 2.8094,2.8264 0,1.5525 -1.2625,2.8207 -2.8094,2.8264l0 -5.6528m-0.017 -0.0114l0 5.6869c1.5696,0 2.8435,-1.2738 2.8435,-2.8434 0,-1.5753 -1.2739,-2.8435 -2.8435,-2.8435l0 0z"/>
   </g>
   <g>
    <path class="fil2 str2" d="M354.353 43.7954l0 5.6301 -5.6301 -5.6301 5.6301 0m0.0171 -0.0114l-5.687 0 5.687 5.687 0 -5.687 0 0z"/>
   </g>
   <g>
    <path class="fil2 str2" d="M351.51 43.7954l0 5.6528c-1.5525,-0.0113 -2.8093,-1.2738 -2.8093,-2.8264 0,-1.5525 1.2568,-2.815 2.8093,-2.8264m0.0171 -0.0114c-1.5696,0 -2.8435,1.2739 -2.8435,2.8435 0,1.5696 1.2739,2.8435 2.8435,2.8435l0 -5.687 0 0z"/>
   </g>
   <g>
    <path class="fil2 str2" d="M354.353 49.4824l0 5.6528 -5.6528 0 0 -5.6528 5.6528 0m0.0171 -0.0114l-5.687 0 0 5.6869 5.687 0 0 -5.6869 0 0z"/>
   </g>
   <g>
    <path class="fil2 str2" d="M362.901 49.4824c1.5525,0 2.8207,1.2625 2.8264,2.8093l-5.6528 0c0.0056,-1.5468 1.2738,-2.8093 2.8264,-2.8093m0 -0.0114c-1.5696,0 -2.8435,1.2739 -2.8435,2.8435l5.6869 0c0,-1.5753 -1.2738,-2.8435 -2.8434,-2.8435l0 0z"/>
   </g>
   <g>
    <path class="fil2 str2" d="M365.727 49.4824l0 5.63 -5.6301 -5.63 5.6301 0m0.017 -0.0114l-5.6869 0 5.6869 5.6869 0 -5.6869 0 0z"/>
   </g>
   <g>
    <path class="fil2 str2" d="M357.214 49.4824c1.5582,0 2.8264,1.2681 2.8264,2.8264 0,1.5582 -1.2682,2.8264 -2.8264,2.8264 -1.5582,0 -2.8264,-1.2682 -2.8264,-2.8264 0,-1.5583 1.2682,-2.8264 2.8264,-2.8264m0 -0.0114c-1.5696,0 -2.8434,1.2739 -2.8434,2.8435 0,1.5696 1.2738,2.8434 2.8434,2.8434 1.5696,0 2.8435,-1.2738 2.8435,-2.8434 0,-1.5753 -1.2739,-2.8435 -2.8435,-2.8435l0 0z"/>
   </g>
   <g>
    <path class="fil2 str2" d="M360.04 49.5051l0 5.6301 -5.63 0 5.63 -5.6301m0.0171 -0.0341l-5.6869 5.6869 5.6869 0 0 -5.6869 0 0z"/>
   </g>
   <g>
    <path class="fil2 str2" d="M377.135 49.5051l5.6301 5.6301 -5.6301 0 0 -5.6301m-0.0171 -0.0341l0 5.6869 5.687 0 -5.687 -5.6869 0 0z"/>
   </g>
   <polyline class="fil0 str2" points="365.744,49.471 371.431,49.471 365.744,55.1579 "/>
   <polyline class="fil0 str2" points="388.492,49.471 382.805,49.471 382.805,55.1579 388.492,55.1579 "/>
   <polyline class="fil0 str2" points="377.118,49.471 371.431,49.471 371.431,55.1579 377.118,55.1579 "/>
   <path class="fil0 str2" d="M388.492 49.471c-1.5696,0 -2.8434,1.2739 -2.8434,2.8435 0,1.5696 1.2738,2.8434 2.8434,2.8434"/>
   <g>
    <path class="fil2 str2" d="M391.336 38.1085c1.5526,0 2.8207,1.2625 2.8264,2.8093l-5.6528 0c0.0057,-1.5468 1.2739,-2.8093 2.8264,-2.8093m0 -0.0114c-1.5696,0 -2.8435,1.2739 -2.8435,2.8435l5.687 0c0,-1.5753 -1.2739,-2.8435 -2.8435,-2.8435l0 0z"/>
   </g>
   <g>
    <path class="fil2 str2" d="M394.162 49.5051l0 5.6301 -5.63 0 5.63 -5.6301m0.0171 -0.0341l-5.687 5.6869 5.687 0 0 -5.6869 0 0z"/>
   </g>
   <line class="fil0 str2" x1="371.431" y1="49.471" x2="377.118" y2= "55.1579" />
   <g>
    <path class="fil2 str2" d="M368.588 49.4824c1.5582,0 2.8264,1.2681 2.8264,2.8264 0,1.5582 -1.2682,2.8264 -2.8264,2.8264 -1.5582,0 -2.8264,-1.2682 -2.8264,-2.8264 0,-1.5583 1.2682,-2.8264 2.8264,-2.8264m0 -0.0114c-1.5696,0 -2.8435,1.2739 -2.8435,2.8435 0,1.5696 1.2739,2.8434 2.8435,2.8434 1.5696,0 2.8435,-1.2738 2.8435,-2.8434 0,-1.5753 -1.2739,-2.8435 -2.8435,-2.8435l0 0z"/>
   </g>
   <g>
    <path class="fil2 str2" d="M388.509 38.1312l5.6301 5.6301 -5.6301 0 0 -5.6301m-0.0171 -0.0341l0 5.6869 5.687 0 -5.687 -5.6869 0 0z"/>
   </g>
   <g>
    <path class="fil2 str2" d="M391.336 43.7954c1.5582,0 2.8264,1.2682 2.8264,2.8264 0,1.5582 -1.2682,2.8264 -2.8264,2.8264 -1.5582,0 -2.8264,-1.2682 -2.8264,-2.8264 0,-1.5582 1.2682,-2.8264 2.8264,-2.8264m0 -0.0114c-1.5696,0 -2.8435,1.2739 -2.8435,2.8435 0,1.5696 1.2739,2.8435 2.8435,2.8435 1.5696,0 2.8435,-1.2739 2.8435,-2.8435 0,-1.5753 -1.2739,-2.8435 -2.8435,-2.8435l0 0z"/>
   </g>
   <polyline class="fil0 str2" points="388.492,43.784 388.492,49.471 394.179,49.471 394.179,43.784 "/>
   <g>
    <path class="fil2 str2" d="M379.962 49.4824c1.5582,0 2.8264,1.2681 2.8264,2.8264 0,1.5582 -1.2682,2.8264 -2.8264,2.8264 -1.5582,0 -2.8264,-1.2682 -2.8264,-2.8264 0,-1.5583 1.2682,-2.8264 2.8264,-2.8264m0 -0.0114c-1.5696,0 -2.8435,1.2739 -2.8435,2.8435 0,1.5696 1.2739,2.8434 2.8435,2.8434 1.5696,0 2.8435,-1.2738 2.8435,-2.8434 0,-1.5753 -1.2739,-2.8435 -2.8435,-2.8435l0 0z"/>
   </g>
   <g>
    <path class="fil2 str2" d="M374.258 26.7346l0 5.6528c-1.5525,-0.0114 -2.8093,-1.2739 -2.8093,-2.8264 0,-1.5526 1.2568,-2.8151 2.8093,-2.8264m0.0171 -0.0114c-1.5696,0 -2.8435,1.2739 -2.8435,2.8435 0,1.5696 1.2739,2.8434 2.8435,2.8434l0 -5.6869 0 0z"/>
   </g>
   <g>
    <path class="fil2 str2" d="M354.353 32.4215l0 5.6301 -5.6301 -5.6301 5.6301 0m0.0171 -0.0114l-5.687 0 5.687 5.687 0 -5.687 0 0z"/>
   </g>
   <g>
    <path class="fil2 str2" d="M371.414 26.7346l0 5.63 -5.63 -5.63 5.63 0m0.0171 -0.0114l-5.687 0 5.687 5.6869 0 -5.6869 0 0z"/>
   </g>
   <g>
    <path class="fil2 str2" d="M360.018 26.7346l-5.6301 5.63 0 -5.63 5.6301 0m0.0398 -0.0114l-5.6869 0 0 5.6869 5.6869 -5.6869 0 0z"/>
   </g>
   <polyline class="fil0 str2" points="354.37,26.7232 348.683,26.7232 348.683,32.4101 "/>
   <g>
    <path class="fil2 str2" d="M394.162 32.4215l0 5.6528 -5.6528 0 0 -5.6528 5.6528 0m0.0171 -0.0114l-5.687 0 0 5.687 5.687 0 0 -5.687 0 0z"/>
   </g>
   <g>
    <path class="fil2 str2" d="M382.788 26.7346l0 5.6528 -5.6528 0 0 -5.6528 5.6528 0m0.0171 -0.0114l-5.687 0 0 5.6869 5.687 0 0 -5.6869 0 0z"/>
   </g>
   <g>
    <path class="fil2 str2" d="M365.727 26.7346l0 5.6528 -5.6528 0 0 -5.6528 5.6528 0m0.017 -0.0114l-5.6869 0 0 5.6869 5.6869 0 0 -5.6869 0 0z"/>
   </g>
   <g>
    <path class="fil2 str2" d="M368.588 26.7346c1.5582,0 2.8264,1.2682 2.8264,2.8264 0,1.5582 -1.2682,2.8264 -2.8264,2.8264 -1.5582,0 -2.8264,-1.2682 -2.8264,-2.8264 0,-1.5582 1.2682,-2.8264 2.8264,-2.8264m0 -0.0114c-1.5696,0 -2.8435,1.2739 -2.8435,2.8435 0,1.5696 1.2739,2.8434 2.8435,2.8434 1.5696,0 2.8435,-1.2738 2.8435,-2.8434 0,-1.5696 -1.2739,-2.8435 -2.8435,-2.8435l0 0z"/>
   </g>
   <g>
    <path class="fil2 str2" d="M385.649 29.578c1.5525,0 2.8207,1.2625 2.8264,2.8094l-5.6528 0c0.0056,-1.5469 1.2738,-2.8094 2.8264,-2.8094m0 -0.0113c-1.5696,0 -2.8435,1.2738 -2.8435,2.8434l5.6869 0c0,-1.5752 -1.2738,-2.8434 -2.8434,-2.8434l0 0z"/>
   </g>
   <g>
    <path class="fil2 str2" d="M354.353 35.265c-0.0114,1.5525 -1.2739,2.8093 -2.8264,2.8093 -1.5526,0 -2.8208,-1.2625 -2.8264,-2.8093l5.6528 0m0.0171 -0.0114l-5.687 0c0,1.5696 1.2739,2.8435 2.8435,2.8435 1.5696,0 2.8435,-1.2739 2.8435,-2.8435l0 0z"/>
   </g>
   <line class="fil0 str2" x1="365.744" y1="32.4101" x2="360.057" y2= "26.7232" />
   <line class="fil0 str2" x1="354.37" y1="26.7232" x2="348.683" y2= "32.4101" />
   <polyline class="fil0 str2" points="371.431,26.7232 377.118,26.7232 371.431,32.4101 "/>
   <line class="fil0 str2" x1="388.492" y1="26.7232" x2="394.179" y2= "32.4101" />
   <polyline class="fil0 str2" points="394.179,32.4101 394.179,26.7232 388.492,26.7232 388.492,32.4101 "/>
   <g>
    <path class="fil2 str2" d="M357.214 26.7346c1.5582,0 2.8264,1.2682 2.8264,2.8264 0,1.5582 -1.2682,2.8264 -2.8264,2.8264 -1.5582,0 -2.8264,-1.2682 -2.8264,-2.8264 0,-1.5582 1.2682,-2.8264 2.8264,-2.8264m0 -0.0114c-1.5696,0 -2.8434,1.2739 -2.8434,2.8435 0,1.5696 1.2738,2.8434 2.8434,2.8434 1.5696,0 2.8435,-1.2738 2.8435,-2.8434 0,-1.5696 -1.2739,-2.8435 -2.8435,-2.8435l0 0z"/>
   </g>
   <line class="fil0 str2" x1="388.492" y1="38.0971" x2="394.179" y2= "32.4101" />
   <path class="fil0 str2" d="M377.118 26.7232c0,1.5696 1.2739,2.8435 2.8435,2.8435 1.5696,0 2.8435,-1.2739 2.8435,-2.8435"/>
   <line class="fil0 str2" x1="388.492" y1="26.7232" x2="382.805" y2= "26.7232" />
   <polyline class="fil0 str2" points="348.683,43.784 348.683,38.0971 354.37,43.784 "/>
   <g>
    <path class="fil2 str2" d="M351.544 38.1085c1.5526,0.0113 2.8094,1.2738 2.8094,2.8264 0,1.5525 -1.2625,2.8207 -2.8094,2.8264l0 -5.6528m-0.017 -0.0114l0 5.6869c1.5696,0 2.8435,-1.2738 2.8435,-2.8434 0,-1.5753 -1.2739,-2.8435 -2.8435,-2.8435l0 0z"/>
   </g>
   <g>
    <g>
     <polygon class="fil3 str2" points="355.417,39.769 355.417,33.6215 359.381,33.6215 359.381,34.9408 356.912,34.9408 356.912,36.2773 359.182,36.2773 359.182,37.5739 356.912,37.5739 356.912,39.769 "/>
     <path class="fil2 str2" d="M359.369 33.6328l0 1.3023 -2.4511 0 -0.0171 0 0 0.0171 0 1.3137 0 0.017 0.0171 0 2.252 0 0 1.2853 -2.252 0 -0.0171 0 0 0.0171 0 2.1781 -1.4786 0 0 -6.1306 3.9468 0m0.017 -0.017l-3.9751 0 0 6.1646 1.5127 0 0 -2.2008 2.2691 0 0 -1.3137 -2.2691 0 0 -1.3137 2.4681 0 0 -1.3364 -0.0057 0z"/>
    </g>
    <g>
     <path class="fil3 str2" d="M363.737 39.769l-0.3071 -0.6369 -2.4454 0 -0.2957 0.6369 -1.6038 0 2.9914 -6.3523 0.2559 0 3.0141 6.3523 -1.6094 0zm-2.2862 -1.6947l1.4729 0 -0.7165 -1.5752 -0.0285 0 -0.7279 1.5752z"/>
     <path class="fil2 str2" d="M362.326 33.4281l3.0027 6.3353 -1.5867 0 -0.3014 -0.6256 -0.0057 -0.0114 -0.0113 0 -2.434 0 -0.0114 0 -0.0057 0.0114 -0.2957 0.6256 -1.5867 0 2.9857 -6.3353 0.2502 0m-0.8929 4.6519l0.0228 0 1.4502 0 0.0227 0 -0.0114 -0.0227 -0.6995 -1.5639 -0.0056 -0.0114 -0.0114 0 -0.0228 0 -0.0113 0 -0.0057 0.0114 -0.7166 1.5639 -0.0114 0.0227m0.8986 -4.669l-0.2673 0 -2.997 6.3694 1.6208 0 0.2957 -0.6369 2.434 0 0.3071 0.6369 1.6208 0 -3.0141 -6.3694 0 0zm-0.8701 4.652l0.7165 -1.5639 0.0228 0 0.7108 1.5639 -1.4501 0 0 0z"/>
    </g>
    <g>
     <path class="fil3 str2" d="M366.017 39.769l0 -6.1475 2.4795 0c1.0351,0 1.8426,0.7563 1.8426,1.7174 0,0.5346 -0.1934,0.8986 -0.6654,1.2568l-0.0057 0 0 0.0285 0.0057 0c0.6483,0.4606 0.8986,0.8871 0.8986,1.5127 0,0.8075 -0.6313,1.6265 -1.8426,1.6265l-2.7127 0 0 0.0056zm1.4843 -1.325l0.9213 0c0.3526,0 0.5858,-0.2104 0.5858,-0.5403 0,-0.3184 -0.2446,-0.5516 -0.5858,-0.5516l-0.9213 0 0 1.0919zm0 -2.3658l0.7279 0c0.3583,0 0.6029,-0.2388 0.6029,-0.5857 0,-0.3242 -0.2616,-0.5744 -0.6029,-0.5744l-0.7279 0 0 1.1601z"/>
     <path class="fil2 str2" d="M368.497 33.6328c0.4948,0 0.9554,0.1763 1.2967,0.4948 0.3469,0.3185 0.5345,0.7507 0.5345,1.2113 0,0.5289 -0.1933,0.8929 -0.6597,1.2511l-0.0056 0.0057 0 0.0057 0 0.0228 0 0.0057 0.0056 0.0056c0.6484,0.4607 0.8986,0.8815 0.8986,1.5071 0,0.8018 -0.6313,1.6151 -1.8312,1.6151l-2.707 0 0 -6.1249 2.4681 0m-1.0009 2.4568l0.0171 0 0.7165 0c0.3583,0 0.6142,-0.2445 0.6142,-0.5914 0,-0.3299 -0.2616,-0.5801 -0.6142,-0.5801l-0.7165 0 -0.0171 0 0 0.017 0 1.1431 0 0.0114m0 2.3601l0.0171 0 0.9156 0c0.3583,0 0.5914,-0.2161 0.5914,-0.5517 0,-0.3241 -0.2502,-0.563 -0.5914,-0.563l-0.9156 0 -0.0171 0 0 0.0171 0 1.0805 0 0.0171m1.0009 -4.8339l-2.4852 0 0 6.1646 2.7241 0c1.1715,0 1.8482,-0.7791 1.8482,-1.6321 0,-0.637 -0.2672,-1.0692 -0.9042,-1.5184l0 -0.0228c0.4322,-0.3298 0.6654,-0.6881 0.6654,-1.2625 0,-0.9668 -0.8189,-1.7288 -1.8483,-1.7288l0 0zm-0.9838 2.4567l0 -1.143 0.7165 0c0.3469,0 0.5972,0.2445 0.5972,0.563 0,0.3412 -0.2446,0.5743 -0.5972,0.5743l-0.7165 0 0 0.0057zm0 2.3601l0 -1.0805 0.9156 0c0.3469,0 0.5744,0.2445 0.5744,0.5459 0,0.3299 -0.2275,0.5346 -0.5744,0.5346l-0.9156 0 0 0z"/>
    </g>
    <g>
     <polygon class="fil3 str2" points="371.318,39.769 371.318,33.6215 372.813,33.6215 372.813,38.4952 375.497,38.4952 375.497,39.769 "/>
     <path class="fil2 str2" d="M372.807 33.6328l0 4.851 0 0.0171 0.0171 0 2.6672 0 0 1.2625 -4.1572 0 0 -6.1306 1.4729 0m0.0171 -0.017l-1.5127 0 0 6.1646 4.1913 0 0 -1.2966 -2.6786 0 0 -4.868 0 0z"/>
    </g>
    <g>
     <path class="fil3 str2" d="M380.57 39.769l-0.3071 -0.6369 -2.4454 0 -0.2957 0.6369 -1.6037 0 2.9913 -6.3523 0.2559 0 3.0141 6.3523 -1.6094 0zm-2.2861 -1.6947l1.4729 0 -0.7166 -1.5752 -0.0284 0 -0.7279 1.5752z"/>
     <path class="fil2 str2" d="M379.16 33.4281l3.0027 6.3353 -1.5867 0 -0.3014 -0.6256 -0.0057 -0.0114 -0.0114 0 -2.434 0 -0.0113 0 -0.0057 0.0114 -0.2958 0.6256 -1.5866 0 2.9856 -6.3353 0.2503 0m-0.8872 4.6519l0.0227 0 1.4502 0 0.0228 0 -0.0114 -0.0227 -0.7052 -1.5639 -0.0057 -0.0114 -0.0114 0 -0.0227 0 -0.0114 0 -0.0057 0.0114 -0.7108 1.5639 -0.0114 0.0227m0.8985 -4.669l-0.2673 0 -2.997 6.3694 1.6208 0 0.2957 -0.6369 2.434 0 0.3071 0.6369 1.6208 0 -3.0141 -6.3694 0 0zm-0.8758 4.652l0.7166 -1.5639 0.0227 0 0.7109 1.5639 -1.4502 0 0 0z"/>
    </g>
    <g>
     <path class="fil3 str2" d="M382.856 39.769l0 -6.1475 2.4795 0c1.035,0 1.8426,0.7563 1.8426,1.7174 0,0.5346 -0.1934,0.8986 -0.6654,1.2568l-0.0057 0 0 0.0285 0.0057 0c0.6483,0.4606 0.8985,0.8871 0.8985,1.5127 0,0.8075 -0.6312,1.6265 -1.8425,1.6265l-2.7127 0 0 0.0056zm1.4843 -1.325l0.9213 0c0.3525,0 0.5857,-0.2104 0.5857,-0.5403 0,-0.3184 -0.2445,-0.5516 -0.5857,-0.5516l-0.9213 0 0 1.0919zm0 -2.3658l0.7279 0c0.3583,0 0.6028,-0.2388 0.6028,-0.5857 0,-0.3242 -0.2616,-0.5744 -0.6028,-0.5744l-0.7279 0 0 1.1601z"/>
     <path class="fil2 str2" d="M385.336 33.6328c0.4948,0 0.9554,0.1763 1.2966,0.4948 0.3469,0.3185 0.5346,0.7507 0.5346,1.2113 0,0.5289 -0.1934,0.8929 -0.6597,1.2511l-0.0057 0.0057 0 0.0057 0 0.0228 0 0.0057 0.0057 0.0056c0.6483,0.4607 0.8985,0.8815 0.8985,1.5071 0,0.8018 -0.6312,1.6151 -1.8312,1.6151l-2.7126 0 0 -6.1249 2.4738 0m-1.0066 2.4568l0.0171 0 0.7165 0c0.3583,0 0.6142,-0.2445 0.6142,-0.5914 0,-0.3299 -0.2616,-0.5801 -0.6142,-0.5801l-0.7165 0 -0.0171 0 0 0.017 0 1.1431 0 0.0114m0 2.3601l0.0171 0 0.9156 0c0.3582,0 0.5914,-0.2161 0.5914,-0.5517 0,-0.3241 -0.2502,-0.563 -0.5914,-0.563l-0.9156 0 -0.0171 0 0 0.0171 0 1.0805 0 0.0171m1.0066 -4.8339l-2.4852 0 0 6.1646 2.724 0c1.1716,0 1.8483,-0.7791 1.8483,-1.6321 0,-0.637 -0.2673,-1.0692 -0.9042,-1.5184l0 -0.0228c0.4322,-0.3298 0.6653,-0.6881 0.6653,-1.2625 0,-0.9668 -0.8246,-1.7288 -1.8482,-1.7288l0 0zm-0.9895 2.4567l0 -1.143 0.7165 0c0.3469,0 0.5971,0.2445 0.5971,0.563 0,0.3412 -0.2445,0.5743 -0.5971,0.5743l-0.7165 0 0 0.0057zm0 2.3601l0 -1.0805 0.9156 0c0.3469,0 0.5743,0.2445 0.5743,0.5459 0,0.3299 -0.2274,0.5346 -0.5743,0.5346l-0.9156 0 0 0z"/>
    </g>
    <g>
     <polygon class="fil3 str2" points="355.417,47.128 355.417,40.9804 356.912,40.9804 356.912,45.8484 359.597,45.8484 359.597,47.128 "/>
     <path class="fil2 str2" d="M356.907 40.9861l0 4.8509 0 0.0171 0.0171 0 2.6672 0 0 1.2625 -4.1572 0 0 -6.1305 1.4729 0m0.0171 -0.0114l-1.5127 0 0 6.1646 4.1912 0 0 -1.2966 -2.6785 0 0 -4.868 0 0z"/>
    </g>
    <g>
     <rect class="fil3 str2" x="360.342" y="40.9805" width="1.4956" height="6.1475"/>
     <path class="fil2 str2" d="M361.826 40.9861l0 6.1305 -1.4786 0 0 -6.1305 1.4786 0m0.0171 -0.0114l-1.5127 0 0 6.1646 1.5127 0 0 -6.1646 0 0z"/>
    </g>
    <g>
     <polygon class="fil3 str2" points="362.838,47.128 362.838,40.9804 366.899,40.9804 366.899,42.2997 364.328,42.2997 364.328,43.4258 366.7,43.4258 366.7,44.7224 364.328,44.7224 364.328,45.8484 367.012,45.8484 367.012,47.128 "/>
     <path class="fil2 str2" d="M366.887 40.9861l0 1.3023 -2.5534 0 -0.0114 0 0 0.017 0 1.109 0 0.017 0.0171 0 2.3544 0 0 1.2853 -2.3544 0 -0.0171 0 0 0.0171 0 1.1089 0 0.0171 0.0171 0 2.6672 0 0 1.2625 -4.1629 0 0 -6.1362 4.0434 0m0.0171 -0.0114l-4.0776 0 0 6.1646 4.1913 0 0 -1.2966 -2.6785 0 0 -1.1089 2.3714 0 0 -1.3137 -2.3714 0 0 -1.109 2.5705 0 0 -1.3364 -0.0057 0z"/>
    </g>
    <g>
     <path class="fil3 str2" d="M370.834 47.128l-1.5867 -2.3203 0 2.3203 -1.4957 0 0 -6.1476 2.5705 0c1.3024,0 2.1781,0.7848 2.1781,1.9563 0,1.0236 -0.489,1.6663 -1.4501,1.9051l-0.0114 0.0057 1.6606 2.2861 -1.8653 0 0 -0.0056zm-1.5867 -3.4748l1.2227 0c0.3526,0 0.5744,-0.3696 0.5744,-0.7165 0,-0.3697 -0.2787,-0.6881 -0.6142,-0.6881l-1.1772 0 0 1.4046 -0.0057 0z"/>
     <path class="fil2 str2" d="M370.328 40.9861c1.2967,0 2.1724,0.7848 2.1724,1.9449 0,1.018 -0.489,1.6606 -1.4444,1.8937l-0.0228 0.0057 0.0114 0.0171 1.6435 2.2634 -1.8482 0 -1.5696 -2.2862 -0.0285 -0.0454 0 0.0511 0 2.2862 -1.4786 0 0 -6.1305 2.5648 0m-1.0862 2.6728l0.0171 0 1.2113 0c0.3583,0 0.5801,-0.3753 0.5801,-0.7222 0,-0.3754 -0.2844,-0.6938 -0.6199,-0.6938l-1.1715 0 -0.0171 0 0 0.017 0 1.3876 0 0.0114m1.0862 -2.6842l-2.5762 0 0 6.1646 1.5128 0 0 -2.3032 1.5696 2.3032 1.888 0 -1.6662 -2.2918c0.9156,-0.2275 1.4615,-0.8303 1.4615,-1.9108 -0.0057,-1.1658 -0.8644,-1.962 -2.1895,-1.962l0 0zm-1.0691 2.6672l0 -1.3877 1.1715 0c0.3412,0 0.6085,0.3185 0.6085,0.6768 0,0.3583 -0.2275,0.7109 -0.563,0.7109l-1.217 0 0 0z"/>
    </g>
   </g>
  </g>
  <path class="fil0 str0" d="M206.819 32.5741l4.0001 0 0 -7.5001c4.1005,0 7.6239,3.0855 9.1671,7.5001l93.6658 0c1.5432,-4.4146 5.0666,-7.5001 9.1671,-7.5001l0 7.5001 3.9999 0 0 -7.5001c5.5228,0 10,5.5964 10,12.5 0,6.9036 -4.4772,12.5 -10,12.5l0 -7.5001 -3.9999 0 0 7.5001c-4.1005,0 -7.6239,-3.0855 -9.1671,-7.5001l-93.6658 0c-1.5432,4.4146 -5.0666,7.5001 -9.1671,7.5001l0 -7.5001 -4.0001 0 0 7.5001c-5.5228,0 -10,-5.5964 -10,-12.5 0,-6.9036 4.4772,-12.5 10,-12.5l0 7.5001z"/>
  <path class="fil0 str0" d="M248.82 104.223l0 -7.3752c-2.0486,-0.8001 -3.5,-2.7929 -3.5,-5.1249 0,-2.332 1.4514,-4.3248 3.5,-5.1249l0 -7.3752 4 0 0 7.3752c2.0486,0.8001 3.5,2.7929 3.5,5.1249 0,2.332 -1.4514,4.3248 -3.5,5.1249l0 7.3752 -4 0z"/>
  <path class="fil0 str0" d="M149.618 56.723l-4 0 0 -6.0002 4 0 0 -5.9997 -4 0 0 -6.0002 4 0 0 -5.9997 -4 0 0 -6.0002 4 0c8.8253,0 16.7603,1.9056 22.2496,4.9386l0 10.0614c0,0.4142 0.3358,0.75 0.75,0.75 0.4142,0 0.75,-0.3358 0.75,-0.75l0 -9.1642c3.9178,2.5346 6.2504,5.713 6.2504,9.1642 0,8.2843 -13.4315,15 -30,15z"/>
  <path class="fil0 str0" d="M38.1799 126.943c82.1264,0 148.825,-15.4009 149.973,-34.5l-2.7557 0c-0.206,0.5826 -0.7615,1.0001 -1.4146,1.0001 -0.8284,0 -1.5,-0.6716 -1.5,-1.5 0,-0.8284 0.6716,-1.5 1.5,-1.5 0.653,0 1.2085,0.4174 1.4145,0.9999l2.7558 0c-1.1479,-19.099 -67.8468,-34.4997 -149.973,-34.4997l-4.0003 0 0 9.9997 4.0003 0 0 10 -4.0003 0 0 10 4.0003 0 0 10 -4.0003 0 0 10 4.0003 0 0 10 -4.0003 0 0 10 4.0003 0z"/>
  <path class="fil0 str0" d="M86.1802 104.443l0 -7.3752c-2.0486,-0.8001 -3.5,-2.7929 -3.5,-5.1249 0,-2.332 1.4514,-4.3248 3.5,-5.1249l0 -7.3752 4 0 0 7.3752c2.0486,0.8001 3.5,2.7929 3.5,5.1249 0,2.332 -1.4514,4.3248 -3.5,5.1249l0 7.3752 -4 0z"/>
 </g>
</svg>
